PathFileType	4	(X/Y/Z)	17_1_49_p1_0-215.trc
DataRate	CameraRate	NumFrames	NumMarkers	Units	OrigDataRate	OrigDataStartFrame	OrigNumFrames
60.0	60.0	4	27	m	60.0	0	216
Frame#	Time	RHip			RKnee			RAnkle			RBigToe			RSmallToe			RHeel			LHip			LKnee			LAnkle			LBigToe			LSmallToe			LHeel			Neck			Head			Nose			RShoulder			RElbow			RWrist			RThumb			RIndex			RPinky			LShoulder			LElbow			LWrist			LThumb			LIndex			LPinky			
		X1	Y1	Z1	X2	Y2	Z2	X3	Y3	Z3	X4	Y4	Z4	X5	Y5	Z5	X6	Y6	Z6	X7	Y7	Z7	X8	Y8	Z8	X9	Y9	Z9	X10	Y10	Z10	X11	Y11	Z11	X12	Y12	Z12	X13	Y13	Z13	X14	Y14	Z14	X15	Y15	Z15	X16	Y16	Z16	X17	Y17	Z17	X18	Y18	Z18	X19	Y19	Z19	X20	Y20	Z20	X21	Y21	Z21	X22	Y22	Z22	X23	Y23	Z23	X24	Y24	Z24	X25	Y25	Z25	X26	Y26	Z26	X27	Y27	Z27	
0	0.0	0.24232642440759442	0.5338684752464096	0.8301440872328905	0.223734060885694	0.5542831408069914	1.2413245134224502	0.21901729348746704	0.7572278541056042	1.712532028557299	0.23234792788494335	0.5045335158259006	1.7113524955012258	0.2789625178041385	0.5758924723491196	1.7407040823637787	0.20642484747522866	0.8150162591618383	1.7601309644940335	0.03506883958199479	0.5230968581333904	0.8306318376054695	0.04370105408730179	0.5819237995681489	1.2613560091095755	0.04275007520825581	0.6726680014117108	1.693786725301092	0.08145499488837803	0.46835069275473984	1.7045487073790782	0.026593514397355893	0.532732691597333	1.727698659589007	0.06744146195383834	0.7556413295604917	1.7566108952217723	0.1400314368777323	0.48154900368904635	0.2109349518729031	0.15547549709446107	0.40478221538566234	-0.04820155909814472	0.14881842495453293	0.31929440656962116	0.09243462444841925	0.29459289757964396	0.46918299435399313	0.31543156938386957	0.29062104095431773	0.4223432450348916	0.5788954782160053	0.23732925800139254	0.27966101310769936	0.794632946703098	0.18421207833822384	0.19275999986768003	0.8536700668417017	0.1787704803618307	0.20434510568633255	0.889652451588031	0.18374111493716128	0.30867878635273005	0.9114101918393323	0.0005361014893221498	0.4594604656307245	0.3135612764724775	0.000845184381845747	0.418846800485432	0.5809752838964711	0.11798725494577492	0.26213247595737055	0.7732259327084015	0.21390560243820278	0.2360955625278685	0.8338697850623267	0.21123930325603943	0.21770525802444604	0.8570558808169393	0.15616204173590317	0.2600804677269967	0.8873775356623009
1	0.016666666666666666	0.24437472239082078	0.546882306021884	0.8364094755173073	0.2237707036770086	0.5537950839304643	1.2410898653193438	0.21909135088966744	0.75721033924476	1.712484951941746	0.2305567994074253	0.4911248302459111	1.7098502815754657	0.2788166100502409	0.5753550962954659	1.74054576242879	0.206627024296004	0.8148246919141698	1.760174864824588	0.03507677880699957	0.5230757886211198	0.8305004102816868	0.04371569684482516	0.5820505579566475	1.2609851494302582	0.0466414916301546	0.6754377005122978	1.6945594098179524	0.0824707697930199	0.46777510077371076	1.700493381804074	0.027726836373237893	0.5322760294860921	1.7235588364650845	0.06820705284275645	0.7583762438136444	1.7621686624887143	0.14007471922440798	0.4816592507744948	0.2077893545057049	0.1554895740461418	0.40472794235185283	-0.0482039222906141	0.14886710273845313	0.31930367603101356	0.09239302626429038	0.29422592857584373	0.4676517569450908	0.31201224871271543	0.2910328516628217	0.4218985443943313	0.5829477794969479	0.23807690010829238	0.2788815360458675	0.794917280247822	0.18332710105940964	0.19107988935085013	0.8530716322626374	0.17277362437198315	0.21492626793891065	0.8958014814721258	0.18541937097589117	0.306725828350066	0.9150882397360944	0.0004959198587119128	0.45937876403059064	0.31343398961137203	0.0008534706876849029	0.41913270949670933	0.581060764516728	0.11773656187387474	0.2607232309398214	0.7694287536921544	0.21174175881545038	0.224183675375303	0.8266675274795579	0.21237518275332914	0.2102903384229686	0.8521514517384645	0.15610796241739044	0.2587691010095918	0.8835460261332313
2	0.03333333333333333	0.24601329856581602	0.536302171655222	0.8268445071197953	0.22380341209640872	0.5538525641000965	1.2411615117678079	0.2191753737513357	0.7572312901693823	1.7124808453162357	0.23000266353777268	0.4919903154883159	1.705793946290509	0.27885935129324385	0.5750522720634987	1.7403690489037003	0.20671987802473954	0.815048498137125	1.7602018300659825	0.03562534749462557	0.5230407729919737	0.8265533895905037	0.04442683547247322	0.5820022908069571	1.2569977665031453	0.04282689899398136	0.6726827976071642	1.6939195540561012	0.08231064442150324	0.4820477606426225	1.7112444812327552	0.02341364869226468	0.5309702015605261	1.7235962841880834	0.06821301141142323	0.7583915032917738	1.7622229858674372	0.14009112179608527	0.4816554656771549	0.20781415862649832	0.15563021978010827	0.4044656271606058	-0.0449168252001791	0.1488465974664026	0.31939550626885005	0.09236872855965798	0.2942396292598641	0.46772667165166354	0.312014372563726	0.2907780975295617	0.42212156862594064	0.5864666724049378	0.2381105689608728	0.2790654475069288	0.7949855777725626	0.17865371926638357	0.19049639852009564	0.8454325800377418	0.16859142413716718	0.21498153828640548	0.8930240749996011	0.18573586854128094	0.30722843802162964	0.9155005996995292	0.0005306721093012207	0.4593014677486721	0.3134786033261609	0.000904733067264798	0.4191146239458003	0.5809825044226506	0.11775147955290444	0.2607716818669299	0.7694074018258186	0.21111486635829216	0.22383544958494492	0.830993465736538	0.20820722367722386	0.20680812664039633	0.8555059496496543	0.15590524319936305	0.25909290561951853	0.8835645529563129
3	0.05	0.24551044031316194	0.536488633859365	0.8308033149206471	0.22375859605061546	0.553681794601975	1.2410751090184957	0.21918775477363217	0.7572983129579746	1.7124728024735214	0.23188724335840552	0.5046771255865576	1.7118297018593835	0.2787227292800093	0.5750391566025885	1.7404408578404589	0.2077857872108382	0.8140638411628712	1.755208011132814	0.03470071247523334	0.5236158808047275	0.8269502406597746	0.04443698051855872	0.5818719494188715	1.2569521844542693	0.04664734285749737	0.6755195849298629	1.6945166747822287	0.08236078849291682	0.482024172648682	1.7112151542102185	0.023458098571422777	0.5309249384395541	1.7234762126336018	0.06825563546815416	0.758529635743397	1.7620738366272053	0.14006686814759917	0.48164934806388177	0.20777173079897934	0.15567649446352327	0.40448203128705873	-0.045040004926377414	0.14883270172147087	0.3193737567761474	0.09236343272977617	0.29428433868450693	0.46769691294241694	0.311982738693669	0.29080306344051887	0.4221241190758068	0.5864410993437947	0.23765566598823779	0.2791955981998479	0.7984341252760307	0.18280621553300241	0.18987798698520275	0.8479563689728569	0.17273039248732075	0.21484180870871383	0.895983616688848	0.18513730879042584	0.3071864624822585	0.9178509292532928	0.0005031723376961767	0.45931040544802043	0.3134529531020688	0.0008787020051307255	0.41906894663857003	0.5809814856474478	0.11776358113230968	0.2608262066021022	0.7694633757182678	0.2148556676985307	0.2269265565943561	0.8271014331580169	0.21225569639697253	0.21025353553989348	0.852191498514347	0.1556882816330663	0.25962668090917085	0.883884464325829
